<svg width="84" height="66" viewBox="0 0 84 66" fill="none" xmlns="http://www.w3.org/2000/svg">
<g clip-path="url(#clip0_111_199)">
<path d="M12.4736 21.4939V65.008H20.6471C19.8466 65.008 19.1979 64.3624 19.1979 63.5658V58.2094C18.5548 58.2094 18.0335 57.6906 18.0335 57.0505V46.1917C18.0335 45.0211 18.5755 43.9158 19.5025 43.1957L22.6559 40.7463C23.1388 40.3712 23.7029 40.1217 24.2981 40.01L27.5622 31.3518C27.9735 30.2605 29.0221 29.5378 30.1932 29.5378H53.8063C54.9774 29.5378 56.0256 30.2605 56.4372 31.3518L59.7014 40.01H59.6744C60.2699 40.1217 60.8341 40.3712 61.317 40.7463L64.4704 43.1957C65.3974 43.9158 65.9394 45.0211 65.9394 46.1917V57.0505C65.9394 57.6906 65.4181 58.2094 64.775 58.2094V63.5658C64.775 64.3624 64.1263 65.008 63.3258 65.008H71.5258V21.4939H12.4736Z" stroke="white" stroke-width="2" stroke-linecap="round" stroke-linejoin="round"/>
<path d="M19.1974 58.209H26.5811V63.5654C26.5811 64.3613 25.9317 65.0076 25.132 65.0076H20.6465C19.8468 65.0076 19.1974 64.3613 19.1974 63.5654V58.209Z" stroke="white" stroke-width="2" stroke-linecap="round" stroke-linejoin="round"/>
<path d="M63.3254 65.0081H58.84C58.0403 65.0081 57.3908 64.3617 57.3908 63.5659V58.2094H64.7745V63.5659C64.7745 64.3617 64.1251 65.0081 63.3254 65.0081Z" stroke="white" stroke-width="2" stroke-linecap="round" stroke-linejoin="round"/>
<path d="M19.1974 58.209H26.5811V63.5654C26.5811 64.3613 25.9317 65.0076 25.132 65.0076H20.6465C19.8468 65.0076 19.1974 64.3613 19.1974 63.5654V58.209Z" stroke="white" stroke-width="2" stroke-linecap="round" stroke-linejoin="round"/>
<path d="M64.4699 43.1956L61.3165 40.7463C60.6453 40.2249 59.8183 39.9417 58.9669 39.9417H25.0054C24.154 39.9417 23.327 40.2249 22.6557 40.7463L19.5024 43.1956C18.5753 43.9158 18.0333 45.0211 18.0333 46.1917V57.0505C18.0333 57.6906 18.5546 58.2094 19.1978 58.2094H64.7748C65.418 58.2094 65.9393 57.6906 65.9393 57.0505V46.1917C65.9393 45.0211 65.3973 43.9158 64.4702 43.1956H64.4699Z" stroke="white" stroke-width="2" stroke-linecap="round" stroke-linejoin="round"/>
<path d="M63.3254 65.0081H58.84C58.0403 65.0081 57.3908 64.3617 57.3908 63.5659V58.2094H64.7745V63.5659C64.7745 64.3617 64.1251 65.0081 63.3254 65.0081Z" stroke="white" stroke-width="2" stroke-linecap="round" stroke-linejoin="round"/>
<path d="M29.6931 50.6851C27.5839 50.6826 24.4903 50.6998 22.9626 50.7094C22.4531 50.7127 22.0392 50.3023 22.0392 49.7952V48.7117C22.0392 46.9928 23.4396 45.5991 25.1667 45.5991C26.3094 45.5991 27.4026 46.0639 28.1923 46.8859L30.3577 49.139C30.917 49.721 30.5024 50.6862 29.6931 50.6851Z" stroke="white" stroke-width="2" stroke-linecap="round" stroke-linejoin="round"/>
<path d="M54.2788 50.6851C56.388 50.6826 59.4816 50.6998 61.0093 50.7094C61.5188 50.7127 61.9327 50.3023 61.9327 49.7952V48.7117C61.9327 46.9928 60.5323 45.5991 58.8052 45.5991C57.6625 45.5991 56.5693 46.0639 55.7796 46.8859L53.6142 49.139C53.0549 49.721 53.4695 50.6862 54.2788 50.6851Z" stroke="white" stroke-width="2" stroke-linecap="round" stroke-linejoin="round"/>
<path d="M30.193 29.5374C29.0219 29.5374 27.9738 30.2601 27.5621 31.3514L24.298 40.0096L39.8521 39.9413L59.7009 40.0096L56.4367 31.3514C56.0254 30.2601 54.9769 29.5374 53.8058 29.5374H30.1927H30.193Z" stroke="white" stroke-width="2" stroke-linecap="round" stroke-linejoin="round"/>
<path d="M24.2987 40.0099L19.9957 37.8347H16.9298" stroke="white" stroke-width="2" stroke-linecap="round" stroke-linejoin="round"/>
<path d="M59.7013 40.0099L64.004 37.8347H67.0699" stroke="white" stroke-width="2" stroke-linecap="round" stroke-linejoin="round"/>
<path d="M33.1046 53.9119H50.8688" stroke="white" stroke-width="2" stroke-linecap="round" stroke-linejoin="round"/>
<path d="M78.0731 8.0105V61.607C78.0731 63.4853 76.5431 65.008 74.6558 65.008H9.3441C7.45674 65.008 5.92676 63.4853 5.92676 61.607V8.0105" stroke="white" stroke-width="2" stroke-linecap="round" stroke-linejoin="round"/>
<path d="M71.5255 14.9023H12.4736V21.4937H71.5255V14.9023Z" stroke="white" stroke-width="2" stroke-linecap="round" stroke-linejoin="round"/>
<path d="M57.3915 63.5659V58.2095H26.5818V63.5659C26.5818 64.3625 25.9331 65.0081 25.1327 65.0081H58.8406C58.0401 65.0081 57.3915 64.3625 57.3915 63.5659Z" stroke="white" stroke-width="2" stroke-linecap="round" stroke-linejoin="round"/>
<path d="M83.0034 8.01043H0.99707V4.02046C0.99707 2.34826 2.35943 0.992432 4.03967 0.992432H79.9604C81.6407 0.992432 83.003 2.34826 83.003 4.02046V8.01043H83.0034Z" stroke="white" stroke-width="2" stroke-linecap="round" stroke-linejoin="round"/>
</g>
<defs>
<clipPath id="clip0_111_199">
<rect width="84" height="66" fill="white"/>
</clipPath>
</defs>
</svg>
