<svg width="84" height="71" viewBox="0 0 84 71" fill="none" xmlns="http://www.w3.org/2000/svg">
<g clip-path="url(#clip0_111_802)">
<path d="M4.83301 17.4282V10.3682L10.9182 1.16724L17.0033 10.3682V17.4282" stroke="white" stroke-width="2" stroke-linecap="round" stroke-linejoin="round"/>
<path d="M17.0033 62.0159V69.8329H4.83301V62.0159" stroke="white" stroke-width="2" stroke-linecap="round" stroke-linejoin="round"/>
<path d="M4.83301 47.9093V31.5349" stroke="white" stroke-width="2" stroke-linecap="round" stroke-linejoin="round"/>
<path d="M17.0031 47.9093V31.5349" stroke="white" stroke-width="2" stroke-linecap="round" stroke-linejoin="round"/>
<path d="M25.5527 17.4282V10.3682L31.6379 1.16724L37.7231 10.3682V17.4282" stroke="white" stroke-width="2" stroke-linecap="round" stroke-linejoin="round"/>
<path d="M37.7231 62.0159V69.8329H25.5527V62.0159" stroke="white" stroke-width="2" stroke-linecap="round" stroke-linejoin="round"/>
<path d="M25.5527 47.9093V31.5349" stroke="white" stroke-width="2" stroke-linecap="round" stroke-linejoin="round"/>
<path d="M37.7236 47.9093V31.5349" stroke="white" stroke-width="2" stroke-linecap="round" stroke-linejoin="round"/>
<path d="M46.2733 17.4282V10.3682L52.3585 1.16724L58.447 10.3682V17.4282" stroke="white" stroke-width="2" stroke-linecap="round" stroke-linejoin="round"/>
<path d="M58.447 62.0159V69.8329H46.2733V62.0159" stroke="white" stroke-width="2" stroke-linecap="round" stroke-linejoin="round"/>
<path d="M46.2733 47.9093V31.5349" stroke="white" stroke-width="2" stroke-linecap="round" stroke-linejoin="round"/>
<path d="M58.4473 47.9093V31.5349" stroke="white" stroke-width="2" stroke-linecap="round" stroke-linejoin="round"/>
<path d="M66.9969 17.4282V10.3682L73.0821 1.16724L79.1673 10.3682V17.4282" stroke="white" stroke-width="2" stroke-linecap="round" stroke-linejoin="round"/>
<path d="M79.1673 62.0159V69.8329H66.9969V62.0159" stroke="white" stroke-width="2" stroke-linecap="round" stroke-linejoin="round"/>
<path d="M66.9969 47.9093V31.5349" stroke="white" stroke-width="2" stroke-linecap="round" stroke-linejoin="round"/>
<path d="M79.167 47.9093V31.5349" stroke="white" stroke-width="2" stroke-linecap="round" stroke-linejoin="round"/>
<path d="M82.8311 20.5095H1.16895V28.4566H82.8311V20.5095Z" stroke="white" stroke-width="2" stroke-linecap="round" stroke-linejoin="round"/>
<path d="M82.8311 50.9873H1.16895V58.9344H82.8311V50.9873Z" stroke="white" stroke-width="2" stroke-linecap="round" stroke-linejoin="round"/>
<ellipse cx="10.918" cy="24.4814" rx="1.16894" ry="1.16721" fill="white"/>
<ellipse cx="10.918" cy="54.9624" rx="1.16894" ry="1.16721" fill="white"/>
<ellipse cx="31.6377" cy="24.4814" rx="1.16894" ry="1.16721" fill="white"/>
<ellipse cx="31.6377" cy="54.9624" rx="1.16894" ry="1.16721" fill="white"/>
<ellipse cx="52.3584" cy="24.4814" rx="1.16894" ry="1.16721" fill="white"/>
<ellipse cx="52.3584" cy="54.9624" rx="1.16894" ry="1.16721" fill="white"/>
<ellipse cx="73.0791" cy="24.4814" rx="1.16894" ry="1.16721" fill="white"/>
<ellipse cx="73.0791" cy="54.9624" rx="1.16894" ry="1.16721" fill="white"/>
</g>
<defs>
<clipPath id="clip0_111_802">
<rect width="84" height="71" fill="white"/>
</clipPath>
</defs>
</svg>
