<svg width="84" height="71" viewBox="0 0 84 71" fill="none" xmlns="http://www.w3.org/2000/svg">
<g clip-path="url(#clip0_111_228)">
<path d="M1.66895 17.2771C3.53455 15.3918 17.9949 1.27866 42.2993 1.39537C66.245 1.50999 80.4171 15.3445 82.3292 17.2782H1.66895V17.2771Z" stroke="white" stroke-width="2" stroke-linecap="round" stroke-linejoin="round"/>
<path d="M27.5684 17.2771L41.899 1.39539L58.0474 17.2771" stroke="white" stroke-width="2" stroke-linecap="round" stroke-linejoin="round"/>
<path d="M41.9996 17.2771V40.0146H20.8838H64.3164" stroke="white" stroke-width="2" stroke-linecap="round" stroke-linejoin="round"/>
<path d="M26.0879 40.0146V46.0334H58.1116V40.0146" stroke="white" stroke-width="2" stroke-linecap="round" stroke-linejoin="round"/>
<path d="M41.8988 46.0333V69.6057H33.8926H50.1052" stroke="white" stroke-width="2" stroke-linecap="round" stroke-linejoin="round"/>
<path d="M2.67001 30.9865L5.67235 56.8995H26.0882V55.0299C26.0882 53.0152 24.1333 51.3823 21.7213 51.3823H5.07188" stroke="white" stroke-width="2" stroke-linecap="round" stroke-linejoin="round"/>
<path d="M8.67508 56.8994L4.67197 69.6057" stroke="white" stroke-width="2" stroke-linecap="round" stroke-linejoin="round"/>
<path d="M20.2913 56.8994L23.0859 69.6057" stroke="white" stroke-width="2" stroke-linecap="round" stroke-linejoin="round"/>
<path d="M82.3295 30.9865L79.3272 56.8995H58.9113V55.0299C58.9113 53.0152 60.8663 51.3823 63.2782 51.3823H79.9264" stroke="white" stroke-width="2" stroke-linecap="round" stroke-linejoin="round"/>
<path d="M76.3261 56.8994L80.328 69.6057" stroke="white" stroke-width="2" stroke-linecap="round" stroke-linejoin="round"/>
<path d="M64.7086 56.8994L61.9152 69.6057" stroke="white" stroke-width="2" stroke-linecap="round" stroke-linejoin="round"/>
</g>
<defs>
<clipPath id="clip0_111_228">
<rect width="84" height="71" fill="white"/>
</clipPath>
</defs>
</svg>
